<svg width="20" height="20" viewBox="0 0 20 20" fill="none" xmlns="http://www.w3.org/2000/svg">
<path d="M3.54164 17.5C3.54164 17.8416 3.82497 18.125 4.16664 18.125C4.50831 18.125 4.79164 17.8416 4.79164 17.5V15.625H15.2083V17.5C15.2083 17.8416 15.4916 18.125 15.8333 18.125C16.175 18.125 16.4583 17.8416 16.4583 17.5V15.625H18.3334C18.6751 15.625 18.9584 15.3416 18.9584 15C18.9584 14.6583 18.6751 14.375 18.3334 14.375H16.4583V5.625H18.3334C18.6751 5.625 18.9584 5.34166 18.9584 5C18.9584 4.65833 18.6751 4.375 18.3334 4.375H16.4583V2.5C16.4583 2.15833 16.175 1.875 15.8333 1.875C15.4916 1.875 15.2083 2.15833 15.2083 2.5V4.375H4.79164V2.5C4.79164 2.15833 4.50831 1.875 4.16664 1.875C3.82497 1.875 3.54164 2.15833 3.54164 2.5V4.375H1.66664C1.32497 4.375 1.04164 4.65833 1.04164 5C1.04164 5.34166 1.32497 5.625 1.66664 5.625H3.54164V14.375H1.66664C1.32497 14.375 1.04164 14.6583 1.04164 15C1.04164 15.3416 1.32497 15.625 1.66664 15.625H3.54164V17.5ZM15.2083 5.625V14.375H4.79164V5.625H15.2083Z" fill="#161616"/>
</svg>
