<svg width="20" height="20" viewBox="0 0 20 20" fill="none" xmlns="http://www.w3.org/2000/svg">
<path d="M15.3916 17.9421C15.6357 18.1861 16.0314 18.1862 16.2754 17.9421C16.5194 17.6981 16.5193 17.3024 16.2754 17.0583L16.1094 16.8933C16.4745 16.7462 16.8007 16.5418 17.0879 16.2546C17.6505 15.692 17.8966 14.9805 18.0127 14.1169C18.1251 13.2811 18.125 12.2151 18.125 10.8796V10.6248H18.333C18.6782 10.6248 18.958 10.3449 18.958 9.99976C18.9578 9.65473 18.6781 9.37476 18.333 9.37476L3.95801 9.37476L3.95801 4.60327C3.95801 3.78709 4.62034 3.12476 5.43652 3.12476C6.05423 3.1249 6.60153 3.50916 6.81738 4.07983L6.27637 4.51245C6.00696 4.72808 5.96318 5.12088 6.17871 5.39038C6.39428 5.65984 6.78711 5.70345 7.05664 5.48804L9.14062 3.82104C9.40982 3.6054 9.45368 3.21254 9.23828 2.94312C9.02265 2.67358 8.62891 2.62983 8.35937 2.84546L7.81836 3.27905C7.345 2.42689 6.44182 1.87488 5.43652 1.87476C3.92998 1.87476 2.70801 3.09673 2.70801 4.60327L2.70801 9.37476H1.66699C1.32193 9.37476 1.04217 9.65473 1.04199 9.99976C1.04199 10.3449 1.32181 10.6248 1.66699 10.6248H1.875V10.8796C1.87498 12.2151 1.87494 13.2811 1.9873 14.1169C2.10341 14.9805 2.3495 15.692 2.91211 16.2546C3.19908 16.5416 3.52486 16.7462 3.88965 16.8933L3.72461 17.0583C3.48069 17.3024 3.48059 17.6981 3.72461 17.9421C3.96863 18.1862 4.36431 18.1861 4.6084 17.9421L5.33789 17.2126C6.12659 17.2915 7.10049 17.2918 8.28711 17.2917H11.7129C12.899 17.2918 13.8726 17.2914 14.6611 17.2126L15.3916 17.9421ZM8.33301 16.0417C6.94058 16.0417 5.95869 16.0401 5.21582 15.9402C4.49116 15.8427 4.08749 15.6624 3.7959 15.3708C3.50431 15.0793 3.32404 14.6756 3.22656 13.9509C3.12669 13.2081 3.125 12.2262 3.125 10.8337V10.6248L16.875 10.6248V10.8337C16.875 12.2262 16.8733 13.2081 16.7734 13.9509C16.676 14.6756 16.4957 15.0793 16.2041 15.3708C15.9125 15.6624 15.5088 15.8427 14.7842 15.9402C14.0413 16.0401 13.0594 16.0417 11.667 16.0417H8.33301Z" fill="#2C2C2C"/>
</svg>
