<svg width="20" height="20" viewBox="0 0 20 20" fill="none" xmlns="http://www.w3.org/2000/svg">
<path fill-rule="evenodd" clip-rule="evenodd" d="M18.333 18.125C18.6782 18.125 18.958 17.8452 18.958 17.5V13.29C18.958 12.5413 18.9582 11.9166 18.8916 11.4209C18.8212 10.8979 18.6666 10.4254 18.2871 10.0459C18.2351 9.99389 18.1804 9.94724 18.125 9.90332V6.03906C18.126 5.5568 18.1272 5.10305 17.8789 4.68066C17.6387 4.27233 17.2841 4.0534 16.8926 3.8125C16.87 3.7986 16.8471 3.78461 16.8242 3.77051C14.8851 2.57319 12.5311 1.875 10 1.875C7.46906 1.87505 5.1158 2.57329 3.17676 3.77051C3.15393 3.7846 3.131 3.7986 3.1084 3.8125C2.71679 4.05344 2.36234 4.27228 2.12207 4.68066C1.87363 5.1031 1.87395 5.55673 1.875 6.03906L1.875 9.90332C1.81961 9.94724 1.76491 9.99389 1.71289 10.0459C1.33343 10.4254 1.17876 10.8979 1.1084 11.4209C1.04176 11.9165 1.04197 12.5413 1.04199 13.29L1.04199 17.5C1.04199 17.8452 1.32182 18.125 1.66699 18.125C2.01202 18.1248 2.29199 17.8451 2.29199 17.5L2.29199 15.208L17.708 15.208V17.5C17.708 17.8451 17.988 18.1248 18.333 18.125ZM16.875 9.43848C16.5215 9.39384 16.1045 9.38332 15.625 9.37988V8.51074C15.625 8.34766 15.6184 8.10507 15.5 7.87695C15.3678 7.62236 15.1552 7.48924 14.9932 7.40625C14.4233 7.11448 13.7077 6.87507 12.917 6.875C12.1264 6.875 11.4107 7.11454 10.8408 7.40625C10.6787 7.48925 10.4652 7.62224 10.333 7.87695C10.2146 8.10507 10.208 8.34766 10.208 8.51074V9.375H9.79199V8.51074C9.79198 8.34766 9.78535 8.10507 9.66699 7.87695C9.53479 7.62224 9.32129 7.48925 9.15918 7.40625C8.58929 7.11454 7.87364 6.875 7.08301 6.875C6.2923 6.87507 5.57672 7.11448 5.00684 7.40625C4.84476 7.48924 4.63219 7.62236 4.5 7.87695C4.38164 8.10507 4.37501 8.34766 4.375 8.51074L4.375 9.37988C3.89552 9.38332 3.47847 9.39384 3.125 9.43848L3.125 6.13379C3.125 5.49944 3.14388 5.40862 3.19922 5.31445C3.26528 5.20217 3.33905 5.13898 3.83301 4.83398C5.57306 3.75959 7.699 3.12505 10 3.125C12.301 3.125 14.4269 3.75965 16.167 4.83398C16.6611 5.13904 16.7357 5.20216 16.8018 5.31445C16.857 5.40855 16.875 5.49986 16.875 6.13379V9.43848ZM5.625 8.49512C6.061 8.27894 6.56223 8.12506 7.08301 8.125C7.6039 8.125 8.10591 8.2789 8.54199 8.49512V9.375L5.625 9.375V8.49512ZM11.458 8.49512C11.8941 8.2789 12.3961 8.125 12.917 8.125C13.4378 8.12506 13.939 8.27894 14.375 8.49512V9.375H11.458V8.49512ZM2.29199 13.333C2.29199 12.5299 2.29259 11.9904 2.34668 11.5879C2.39838 11.2033 2.48808 11.0383 2.59668 10.9297C2.70528 10.8212 2.87052 10.7323 3.25488 10.6807C3.65738 10.6266 4.19689 10.625 5 10.625L15 10.625C15.8031 10.625 16.3426 10.6266 16.7451 10.6807C17.1295 10.7323 17.2947 10.8212 17.4033 10.9297C17.5119 11.0383 17.6016 11.2033 17.6533 11.5879C17.7074 11.9904 17.708 12.5299 17.708 13.333V13.958L2.29199 13.958L2.29199 13.333Z" fill="#2C2C2C"/>
</svg>
