<svg width="22" height="22" viewBox="0 0 22 22" fill="none" xmlns="http://www.w3.org/2000/svg">
<path d="M10.75 0C11.8509 0 12.9357 0.166229 13.9746 0.493164L13.5254 1.92383C12.6324 1.64283 11.698 1.50098 10.75 1.50098C5.65 1.50098 1.5 5.65098 1.5 10.751C1.5 15.851 5.65 20.001 10.75 20.001C15.85 20.001 20 15.851 20 10.751C20 9.80298 19.8581 8.86859 19.5771 7.97559L21.0078 7.52637C21.3347 8.56528 21.501 9.65008 21.501 10.751C21.501 16.679 16.679 21.501 10.751 21.501L10.75 21.5C4.822 21.5 0 16.678 0 10.75C8.68677e-08 4.822 4.822 8.68703e-08 10.75 0ZM20.3076 2.25195L10.7793 12.8389L6.7207 8.78027L7.78027 7.71973L10.7217 10.6611L19.1934 1.24805L20.3076 2.25195Z" fill="#125346"/>
</svg>
