<svg width="48" height="44" viewBox="0 0 48 44" fill="none" xmlns="http://www.w3.org/2000/svg">
<rect width="48" height="44" rx="4" fill="#E6E6E6"/>
<path d="M23 12.25C23.4142 12.25 23.75 12.5858 23.75 13C23.75 13.4142 23.4142 13.75 23 13.75H17C16.3096 13.75 15.75 14.3096 15.75 15V29C15.75 29.6904 16.3096 30.25 17 30.25H31C31.6904 30.25 32.25 29.6904 32.25 29V26C32.25 25.5858 32.5858 25.25 33 25.25C33.4142 25.25 33.75 25.5858 33.75 26V29C33.75 30.5188 32.5188 31.75 31 31.75H17C15.4812 31.75 14.25 30.5188 14.25 29V15C14.25 13.4812 15.4812 12.25 17 12.25H23ZM26.6982 13.3135C26.9704 13.1938 27.2876 13.2463 27.5068 13.4473L33.5068 18.9473C33.6618 19.0893 33.75 19.2898 33.75 19.5C33.75 19.7102 33.6617 19.9107 33.5068 20.0527L27.5068 25.5527C27.2876 25.7537 26.9704 25.8062 26.6982 25.6865C26.426 25.5668 26.25 25.2974 26.25 25V22.25H24.5713C23.4441 22.25 22.3625 22.6981 21.5654 23.4951L19.5303 25.5303C19.3158 25.7448 18.9931 25.8094 18.7129 25.6934C18.4326 25.5773 18.25 25.3033 18.25 25V22.5C18.25 19.3244 20.8244 16.75 24 16.75H26.25V14C26.25 13.7026 26.426 13.4332 26.6982 13.3135ZM27.75 17.5C27.75 17.9142 27.4142 18.25 27 18.25H24C21.6528 18.25 19.75 20.1528 19.75 22.5V23.1895L20.5049 22.4346C21.5832 21.3562 23.0463 20.75 24.5713 20.75H27C27.4142 20.75 27.75 21.0858 27.75 21.5V23.2949L31.8896 19.5L27.75 15.7051V17.5Z" fill="#6C6C6C"/>
</svg>
