<svg width="40" height="40" viewBox="0 0 40 40" fill="none" xmlns="http://www.w3.org/2000/svg">
<rect width="40" height="40" rx="4" fill="#CEF380"/>
<path d="M20 30.75C25.9371 30.75 30.75 25.9371 30.75 20C30.75 14.0629 25.9371 9.25 20 9.25C14.0629 9.25001 9.25 14.0629 9.25 20C9.25 21.4809 9.54973 22.8939 10.0928 24.1797C10.2352 24.5169 10.3314 24.7448 10.3955 24.9199C10.4609 25.0984 10.4705 25.163 10.4717 25.1797C10.4782 25.2736 10.4541 25.4018 10.292 26.0078L9.27539 29.8057C9.20616 30.0644 9.28033 30.3409 9.46973 30.5303C9.65913 30.7197 9.93558 30.7938 10.1943 30.7246L13.9922 29.708C14.5982 29.5459 14.7264 29.5218 14.8203 29.5283C14.837 29.5295 14.9016 29.5391 15.0801 29.6045C15.2552 29.6686 15.4831 29.7648 15.8203 29.9072C17.1061 30.4503 18.5191 30.75 20 30.75ZM20 29.25C18.7232 29.25 17.5087 28.9918 16.4043 28.5254L16.3867 28.5176C16.0714 28.3844 15.8092 28.2745 15.5957 28.1963C15.3818 28.1179 15.1567 28.0483 14.9238 28.0322C14.5456 28.0061 14.1529 28.1112 13.7021 28.2324C13.67 28.2411 13.6373 28.25 13.6045 28.2588L11.0596 28.9404L11.7412 26.3955C11.75 26.3627 11.7589 26.33 11.7676 26.2979C11.8888 25.8471 11.9939 25.4544 11.9678 25.0762C11.9517 24.8433 11.8821 24.6182 11.8037 24.4043C11.7255 24.1907 11.6156 23.9286 11.4824 23.6133L11.4746 23.5957C11.0082 22.4913 10.75 21.2768 10.75 20C10.75 14.8914 14.8914 10.75 20 10.75C25.1086 10.75 29.25 14.8914 29.25 20C29.25 25.1086 25.1086 29.25 20 29.25ZM22.8154 25.6357C23.1949 25.7218 23.5495 25.8026 24.0156 25.7051C24.3558 25.6338 24.6729 25.4537 24.918 25.2578C25.1629 25.0619 25.4084 24.7926 25.5527 24.4766C25.7513 24.0415 25.7508 23.5987 25.75 23.1191C25.7499 23.0887 25.75 23.0581 25.75 23.0273C25.75 22.807 25.7424 22.4357 25.5996 22.0928C25.4289 21.683 25.0768 21.3452 24.5254 21.2588L24.5205 21.2578C23.837 21.1507 23.3167 21.069 22.9492 21.0156C22.7657 20.989 22.6134 20.9677 22.4941 20.9541C22.396 20.943 22.2604 20.9289 22.1475 20.9355C21.6579 20.9642 21.2684 21.1634 20.9668 21.3701C20.7749 21.5016 20.5663 21.6779 20.4023 21.8164C20.338 21.8707 20.2803 21.9193 20.2334 21.957L19.5518 22.5059C19.1696 22.22 18.8003 21.9019 18.4492 21.5508C18.0981 21.1997 17.78 20.8304 17.4941 20.4482L18.043 19.7666C18.0807 19.7197 18.1293 19.662 18.1836 19.5977C18.3221 19.4337 18.4984 19.2251 18.6299 19.0332C18.8365 18.7317 19.0348 18.342 19.0635 17.8525C19.0701 17.7396 19.0561 17.604 19.0449 17.5059C19.0314 17.3865 19.0111 17.2336 18.9844 17.0498C18.931 16.6823 18.8493 16.1628 18.7422 15.4795L18.7412 15.4736C18.6547 14.9224 18.3169 14.5711 17.9072 14.4004C17.5642 14.2574 17.193 14.25 16.9727 14.25C16.9417 14.25 16.9105 14.2501 16.8799 14.25C16.4004 14.2492 15.9575 14.2485 15.5225 14.4473C15.2066 14.5917 14.938 14.8371 14.7422 15.082C14.5464 15.327 14.3662 15.6434 14.2949 15.9834C14.1973 16.4497 14.2772 16.805 14.3633 17.1846C14.3672 17.202 14.372 17.2197 14.376 17.2373C14.8105 19.1615 15.8259 21.0486 17.3887 22.6113C18.9515 24.1741 20.8385 25.1895 22.7627 25.624C22.7803 25.628 22.798 25.6318 22.8154 25.6357ZM16.6494 19.1055C16.2772 18.39 16.0065 17.6486 15.8389 16.9062C15.7396 16.4667 15.7373 16.4125 15.7627 16.291C15.7722 16.2461 15.8159 16.1402 15.9131 16.0186C16.0105 15.8967 16.1048 15.8306 16.1465 15.8115C16.2495 15.7645 16.3488 15.75 16.9727 15.75C17.0707 15.75 17.1506 15.7528 17.2178 15.7607C17.2377 15.7631 17.2552 15.7659 17.2695 15.7686C17.3728 16.4272 17.4495 16.9183 17.5 17.2656C17.5261 17.4451 17.5438 17.58 17.5547 17.6758C17.5621 17.7415 17.5647 17.7728 17.5654 17.7812C17.5553 17.894 17.5076 18.0167 17.3926 18.1846C17.303 18.3153 17.2142 18.4197 17.1045 18.5488C17.0375 18.6276 16.9622 18.7156 16.874 18.8252L16.6494 19.1055ZM23.709 24.2373C23.5875 24.2627 23.5327 24.2605 23.0928 24.1611C22.3505 23.9935 21.6098 23.7228 20.8945 23.3506L21.1738 23.125C21.2836 23.0366 21.3723 22.9616 21.4512 22.8945C21.5801 22.7849 21.6839 22.6969 21.8145 22.6074C21.9824 22.4923 22.106 22.4448 22.2188 22.4346C22.2275 22.4353 22.2589 22.4379 22.3242 22.4453C22.4199 22.4562 22.5542 22.474 22.7334 22.5C23.0807 22.5505 23.5726 22.6272 24.2314 22.7305C24.234 22.7446 24.2359 22.7616 24.2383 22.7812C24.2462 22.8484 24.25 22.9291 24.25 23.0273C24.25 23.6512 24.2355 23.7505 24.1885 23.8535C24.1695 23.8951 24.103 23.9887 23.9814 24.0859C23.8599 24.1831 23.754 24.2278 23.709 24.2373Z" fill="#125346"/>
</svg>
