<svg width="40" height="40" viewBox="0 0 40 40" fill="none" xmlns="http://www.w3.org/2000/svg">
<rect width="40" height="40" rx="4" fill="#CEF380"/>
<path d="M17.0791 10.7873C19.044 10.7373 20.954 10.7373 22.9189 10.7873C26.1569 10.8693 27.9412 10.9151 29.2842 12.256C30.6291 13.611 30.6664 15.3483 30.7334 18.5012C30.7544 19.5081 30.7544 20.4864 30.7334 21.4933C30.6664 24.6463 30.6291 26.3825 29.2871 27.7355C27.9421 29.0795 26.1579 29.1242 22.9199 29.2062C21.938 29.2312 20.969 29.2443 20 29.2443C19.031 29.2443 18.062 29.2312 17.0801 29.2062C13.8421 29.1242 12.0578 29.0785 10.7148 27.7375C9.36992 26.3825 9.33262 24.6453 9.26562 21.4924C9.24463 20.4854 9.24463 19.5072 9.26562 18.5002C9.33262 15.3474 9.36995 13.611 10.7119 12.258C12.0569 10.9142 13.8413 10.8693 17.0791 10.7873ZM22.8809 12.2853C20.942 12.2353 19.0571 12.2353 17.1172 12.2853C14.0794 12.3623 12.6934 12.3977 11.7744 13.3166C10.8564 14.2426 10.8266 15.5864 10.7646 18.5314C10.7437 19.5163 10.7437 20.4743 10.7646 21.4601C10.8266 24.4051 10.8564 25.7499 11.7773 26.6769C12.6943 27.5929 14.0802 27.6292 17.1182 27.7062C19.0571 27.7562 20.9419 27.7562 22.8818 27.7062C25.9198 27.6292 27.3056 27.594 28.2246 26.675C29.1426 25.749 29.1724 24.4051 29.2344 21.4601C29.2554 20.4753 29.2554 19.5173 29.2344 18.5314C29.1724 15.5864 29.1427 14.2416 28.2217 13.3146C27.3047 12.3987 25.9188 12.3623 22.8809 12.2853ZM14.3545 16.1105C14.5655 15.7545 15.0258 15.6359 15.3818 15.8469L18.3232 17.5871C19.7952 18.4541 20.2039 18.454 21.6777 17.5871L24.6191 15.8478C24.976 15.637 25.4355 15.7547 25.6455 16.1115C25.8565 16.4685 25.7388 16.9289 25.3818 17.1389L22.4395 18.8791C21.4588 19.4569 20.7298 19.7442 20 19.7443C19.271 19.7443 18.5415 19.4561 17.5615 18.8791L14.6191 17.1379C14.2632 16.9269 14.1435 16.4665 14.3545 16.1105Z" fill="#125346"/>
</svg>
