<svg width="40" height="40" viewBox="0 0 40 40" fill="none" xmlns="http://www.w3.org/2000/svg">
<rect width="40" height="40" rx="4" fill="#CEF380"/>
<path d="M20.0557 9.25C21.6583 9.24998 22.9373 9.2499 23.9404 9.38477C24.9767 9.52409 25.8298 9.81998 26.5049 10.4951C27.18 11.1702 27.4759 12.0233 27.6152 13.0596C27.7501 14.0627 27.75 15.3417 27.75 16.9443V23.0557C27.75 24.6583 27.7501 25.9373 27.6152 26.9404C27.4759 27.9767 27.18 28.8298 26.5049 29.5049C25.8298 30.18 24.9767 30.4759 23.9404 30.6152C22.9373 30.7501 21.6583 30.75 20.0557 30.75H19.9443C18.3417 30.75 17.0627 30.7501 16.0596 30.6152C15.0233 30.4759 14.1702 30.18 13.4951 29.5049C12.82 28.8298 12.5241 27.9767 12.3848 26.9404C12.2499 25.9373 12.25 24.6583 12.25 23.0557V16.9443C12.25 15.3417 12.2499 14.0627 12.3848 13.0596C12.5241 12.0233 12.82 11.1702 13.4951 10.4951C14.1702 9.81998 15.0233 9.52409 16.0596 9.38477C17.0627 9.2499 18.3417 9.24998 19.9443 9.25H20.0557ZM23.6172 10.8564C23.5374 11.3325 23.465 11.75 23.3652 12.0898C23.2461 12.4955 23.0673 12.8767 22.7236 13.1816C22.3682 13.4968 21.959 13.6298 21.5205 13.6904C21.107 13.7476 20.5966 13.748 20.002 13.748C19.4072 13.748 18.896 13.7476 18.4824 13.6904C18.044 13.6298 17.6347 13.4968 17.2793 13.1816C16.9356 12.8767 16.7568 12.4955 16.6377 12.0898C16.5379 11.75 16.4645 11.3326 16.3848 10.8564C16.3425 10.8615 16.3008 10.8656 16.2598 10.8711C15.3898 10.9881 14.9057 11.2057 14.5557 11.5557C14.2057 11.9057 13.9881 12.3898 13.8711 13.2598C13.7513 14.1512 13.75 15.3291 13.75 17V23C13.75 24.6709 13.7513 25.8488 13.8711 26.7402C13.9881 27.6102 14.2057 28.0944 14.5557 28.4443C14.9057 28.7943 15.3898 29.0119 16.2598 29.1289C17.1512 29.2487 18.3291 29.25 20 29.25C21.6709 29.25 22.8488 29.2487 23.7402 29.1289C24.6102 29.0119 25.0943 28.7943 25.4443 28.4443C25.7943 28.0944 26.0119 27.6102 26.1289 26.7402C26.2487 25.8488 26.25 24.6709 26.25 23V17C26.25 15.3291 26.2487 14.1512 26.1289 13.2598C26.0119 12.3898 25.7943 11.9057 25.4443 11.5557C25.0943 11.2057 24.6102 10.9881 23.7402 10.8711C23.6999 10.8657 23.6588 10.8614 23.6172 10.8564ZM21 26.25C21.4142 26.25 21.75 26.5858 21.75 27C21.75 27.4142 21.4142 27.75 21 27.75H19C18.5858 27.75 18.25 27.4142 18.25 27C18.25 26.5858 18.5858 26.25 19 26.25H21ZM20 10.75C19.1889 10.75 18.494 10.7506 17.8916 10.7646C17.9599 11.1648 18.0127 11.4473 18.0771 11.667C18.1537 11.9278 18.2213 12.0125 18.2744 12.0596C18.3328 12.1114 18.4244 12.1676 18.6885 12.2041C18.9778 12.244 19.3732 12.248 20.002 12.248C20.6304 12.248 21.0252 12.244 21.3145 12.2041C21.5785 12.1676 21.6701 12.1114 21.7285 12.0596C21.7816 12.0125 21.8492 11.9278 21.9258 11.667C21.9902 11.4473 22.042 11.1647 22.1104 10.7646C21.5075 10.7505 20.812 10.75 20 10.75Z" fill="#125346"/>
</svg>
