<svg width="48" height="44" viewBox="0 0 48 44" fill="none" xmlns="http://www.w3.org/2000/svg">
<rect width="48" height="44" rx="4" fill="#00D254"/>
<path d="M24 32.75C29.9371 32.75 34.75 27.9371 34.75 22C34.75 16.0629 29.9371 11.25 24 11.25C18.0629 11.25 13.25 16.0629 13.25 22C13.25 23.4809 13.5497 24.8939 14.0928 26.1797C14.2352 26.5169 14.3314 26.7448 14.3955 26.9199C14.4609 27.0984 14.4705 27.163 14.4717 27.1797C14.4782 27.2736 14.4541 27.4018 14.292 28.0078L13.2754 31.8057C13.2062 32.0644 13.2803 32.3409 13.4697 32.5303C13.6591 32.7197 13.9356 32.7938 14.1943 32.7246L17.9922 31.708C18.5982 31.5459 18.7264 31.5218 18.8203 31.5283C18.837 31.5295 18.9016 31.5391 19.0801 31.6045C19.2552 31.6686 19.4831 31.7648 19.8203 31.9072C21.1061 32.4503 22.5191 32.75 24 32.75ZM24 31.25C22.7232 31.25 21.5087 30.9918 20.4043 30.5254L20.3867 30.5176C20.0714 30.3844 19.8092 30.2745 19.5957 30.1963C19.3818 30.1179 19.1567 30.0483 18.9238 30.0322C18.5456 30.0061 18.1529 30.1112 17.7021 30.2324C17.67 30.2411 17.6373 30.25 17.6045 30.2588L15.0596 30.9404L15.7412 28.3955C15.75 28.3627 15.7589 28.33 15.7676 28.2979C15.8888 27.8471 15.9939 27.4544 15.9678 27.0762C15.9517 26.8433 15.8821 26.6182 15.8037 26.4043C15.7255 26.1907 15.6156 25.9286 15.4824 25.6133L15.4746 25.5957C15.0082 24.4913 14.75 23.2768 14.75 22C14.75 16.8914 18.8914 12.75 24 12.75C29.1086 12.75 33.25 16.8914 33.25 22C33.25 27.1086 29.1086 31.25 24 31.25ZM26.8154 27.6357C27.1949 27.7218 27.5495 27.8026 28.0156 27.7051C28.3558 27.6338 28.6729 27.4537 28.918 27.2578C29.1629 27.0619 29.4084 26.7926 29.5527 26.4766C29.7513 26.0415 29.7508 25.5987 29.75 25.1191C29.7499 25.0887 29.75 25.0581 29.75 25.0273C29.75 24.807 29.7424 24.4357 29.5996 24.0928C29.4289 23.683 29.0768 23.3452 28.5254 23.2588L28.5205 23.2578C27.837 23.1507 27.3167 23.069 26.9492 23.0156C26.7657 22.989 26.6134 22.9677 26.4941 22.9541C26.396 22.943 26.2604 22.9289 26.1475 22.9355C25.6579 22.9642 25.2684 23.1634 24.9668 23.3701C24.7749 23.5016 24.5663 23.6779 24.4023 23.8164C24.338 23.8707 24.2803 23.9193 24.2334 23.957L23.5518 24.5059C23.1696 24.22 22.8003 23.9019 22.4492 23.5508C22.0981 23.1997 21.78 22.8304 21.4941 22.4482L22.043 21.7666C22.0807 21.7197 22.1293 21.662 22.1836 21.5977C22.3221 21.4337 22.4984 21.2251 22.6299 21.0332C22.8365 20.7317 23.0348 20.342 23.0635 19.8525C23.0701 19.7396 23.0561 19.604 23.0449 19.5059C23.0314 19.3865 23.0111 19.2336 22.9844 19.0498C22.931 18.6823 22.8493 18.1628 22.7422 17.4795L22.7412 17.4736C22.6547 16.9224 22.3169 16.5711 21.9072 16.4004C21.5642 16.2574 21.193 16.25 20.9727 16.25C20.9417 16.25 20.9105 16.2501 20.8799 16.25C20.4004 16.2492 19.9575 16.2485 19.5225 16.4473C19.2066 16.5917 18.938 16.8371 18.7422 17.082C18.5464 17.327 18.3662 17.6434 18.2949 17.9834C18.1973 18.4497 18.2772 18.805 18.3633 19.1846C18.3672 19.202 18.372 19.2197 18.376 19.2373C18.8105 21.1615 19.8259 23.0486 21.3887 24.6113C22.9515 26.1741 24.8385 27.1895 26.7627 27.624C26.7803 27.628 26.798 27.6318 26.8154 27.6357ZM20.6494 21.1055C20.2772 20.39 20.0065 19.6486 19.8389 18.9062C19.7396 18.4667 19.7373 18.4125 19.7627 18.291C19.7722 18.2461 19.8159 18.1402 19.9131 18.0186C20.0105 17.8967 20.1048 17.8306 20.1465 17.8115C20.2495 17.7645 20.3488 17.75 20.9727 17.75C21.0707 17.75 21.1506 17.7528 21.2178 17.7607C21.2377 17.7631 21.2552 17.7659 21.2695 17.7686C21.3728 18.4272 21.4495 18.9183 21.5 19.2656C21.5261 19.4451 21.5438 19.58 21.5547 19.6758C21.5621 19.7415 21.5647 19.7728 21.5654 19.7812C21.5553 19.894 21.5076 20.0167 21.3926 20.1846C21.303 20.3153 21.2142 20.4197 21.1045 20.5488C21.0375 20.6276 20.9622 20.7156 20.874 20.8252L20.6494 21.1055ZM27.709 26.2373C27.5875 26.2627 27.5327 26.2605 27.0928 26.1611C26.3505 25.9935 25.6098 25.7228 24.8945 25.3506L25.1738 25.125C25.2836 25.0366 25.3723 24.9616 25.4512 24.8945C25.5801 24.7849 25.6839 24.6969 25.8145 24.6074C25.9824 24.4923 26.106 24.4448 26.2188 24.4346C26.2275 24.4353 26.2589 24.4379 26.3242 24.4453C26.4199 24.4562 26.5542 24.474 26.7334 24.5C27.0807 24.5505 27.5726 24.6272 28.2314 24.7305C28.234 24.7446 28.2359 24.7616 28.2383 24.7812C28.2462 24.8484 28.25 24.9291 28.25 25.0273C28.25 25.6512 28.2355 25.7505 28.1885 25.8535C28.1695 25.8951 28.103 25.9887 27.9814 26.0859C27.8599 26.1831 27.754 26.2278 27.709 26.2373Z" fill="white"/>
</svg>
