<svg width="13" height="18" viewBox="0 0 13 18" fill="none" xmlns="http://www.w3.org/2000/svg">
<path fill-rule="evenodd" clip-rule="evenodd" d="M2.95455 5.25463C2.95455 2.31681 5.47591 0 8.50379 0L11.3068 0C11.5231 0 11.7372 0.00987277 11.9309 0.0498689C12.1295 0.0909006 12.3484 0.171911 12.5329 0.345341C12.8961 0.68678 12.9167 1.19011 12.9167 1.55093V3.40278C12.9167 3.7636 12.8961 4.26692 12.5329 4.60836C12.3484 4.78179 12.1295 4.8628 11.9309 4.90384C11.7372 4.94383 11.5231 4.9537 11.3068 4.9537H8.50379C8.26816 4.9537 8.14394 5.1242 8.14394 5.25463V6.94445H10.1527C10.4299 6.94445 10.6946 6.95815 10.924 7.00925C11.1531 7.06028 11.4237 7.16538 11.6197 7.40962C11.8208 7.66028 11.8592 7.95148 11.8475 8.19194C11.8361 8.42614 11.7744 8.67891 11.6976 8.93147L11.2756 10.3204C11.1887 10.6061 11.0589 10.9631 10.7337 11.1937C10.418 11.4176 10.0379 11.4352 9.73061 11.4352H8.14394V16.3657C8.14394 16.7266 8.12334 17.2299 7.76017 17.5713C7.57571 17.7448 7.3568 17.8258 7.15813 17.8668C6.96448 17.9068 6.75042 17.9167 6.53409 17.9167H4.56439C4.34806 17.9167 4.134 17.9068 3.94035 17.8668C3.74169 17.8258 3.52278 17.7448 3.33831 17.5713C2.97514 17.2299 2.95455 16.7266 2.95455 16.3657V11.4352H1.60985C1.39352 11.4352 1.17946 11.4253 0.985805 11.3853C0.78714 11.3443 0.568231 11.2633 0.383765 11.0898C0.0205981 10.7484 0 10.2451 0 9.88426L0 8.49537C0 8.13455 0.0205982 7.63123 0.383765 7.28979C0.568232 7.11636 0.78714 7.03535 0.985805 6.99431C1.17946 6.95432 1.39352 6.94445 1.60985 6.94445H2.95455V5.25463ZM8.50379 1.25C6.0925 1.25 4.20455 3.0787 4.20455 5.25463V7.56945C4.20455 7.91462 3.92472 8.19445 3.57955 8.19445H1.60985C1.44159 8.19445 1.33408 8.20229 1.26478 8.21367C1.25633 8.271 1.25 8.35947 1.25 8.49537V9.88426C1.25 10.0202 1.25633 10.1086 1.26478 10.166C1.33408 10.1773 1.44159 10.1852 1.60985 10.1852H3.57955C3.92472 10.1852 4.20455 10.465 4.20455 10.8102V16.3657C4.20455 16.5016 4.21088 16.5901 4.21933 16.6474C4.28863 16.6588 4.39614 16.6667 4.56439 16.6667H6.53409C6.70234 16.6667 6.80986 16.6588 6.87916 16.6474C6.88761 16.5901 6.89394 16.5016 6.89394 16.3657V10.8102C6.89394 10.465 7.17376 10.1852 7.51894 10.1852H9.73061C9.87183 10.1852 9.95312 10.1782 10.0018 10.1692C10.02 10.1328 10.0455 10.0691 10.0796 9.9569L10.5016 8.56802C10.5495 8.41055 10.5761 8.29773 10.5891 8.21781C10.4939 8.20356 10.3546 8.19445 10.1527 8.19445H7.51894C7.17376 8.19445 6.89394 7.91462 6.89394 7.56945V5.25463C6.89394 4.36231 7.65158 3.7037 8.50379 3.7037H11.3068C11.4751 3.7037 11.5826 3.69586 11.6519 3.68449C11.6603 3.62715 11.6667 3.53868 11.6667 3.40278V1.55093C11.6667 1.41503 11.6603 1.32655 11.6519 1.26922C11.5826 1.25784 11.4751 1.25 11.3068 1.25H8.50379Z" fill="#2C2C2C"/>
</svg>
