<svg width="20" height="20" viewBox="0 0 20 20" fill="none" xmlns="http://www.w3.org/2000/svg">
<path d="M10.0479 18.542C11.8733 18.542 13.3073 18.5421 14.4268 18.3916C15.5739 18.2374 16.4841 17.9144 17.1992 17.1992C17.9144 16.4841 18.2374 15.5739 18.3916 14.4268C18.5421 13.3073 18.542 11.8733 18.542 10.0479V9.95215C18.542 8.12666 18.5421 6.69271 18.3916 5.57324C18.2374 4.42605 17.9144 3.51593 17.1992 2.80078C16.4841 2.08563 15.5739 1.76264 14.4268 1.6084C13.3073 1.45789 11.8733 1.458 10.0479 1.45801H9.95215C8.12666 1.458 6.69271 1.45789 5.57324 1.6084C4.42605 1.76264 3.51594 2.08563 2.80078 2.80078C2.08563 3.51594 1.76264 4.42605 1.6084 5.57324C1.45789 6.69271 1.458 8.12666 1.45801 9.95215V10.0479C1.458 11.8733 1.45789 13.3073 1.6084 14.4268C1.76264 15.5739 2.08563 16.4841 2.80078 17.1992C3.51594 17.9144 4.42605 18.2374 5.57324 18.3916C6.69271 18.5421 8.12666 18.542 9.95215 18.542H10.0479ZM10 17.292C8.11655 17.292 6.76678 17.2903 5.74023 17.1523C4.73163 17.0167 4.12877 16.7596 3.68457 16.3154C3.24037 15.8712 2.98326 15.2684 2.84766 14.2598C2.70968 13.2332 2.70801 11.8834 2.70801 10C2.70801 8.11655 2.70968 6.76678 2.84766 5.74023C2.98326 4.73163 3.24037 4.12877 3.68457 3.68457C4.12877 3.24037 4.73163 2.98326 5.74023 2.84766C6.76678 2.70968 8.11655 2.70801 10 2.70801C11.8834 2.70801 13.2332 2.70968 14.2598 2.84766C15.2684 2.98326 15.8712 3.24037 16.3154 3.68457C16.7596 4.12877 17.0167 4.73163 17.1523 5.74023C17.2903 6.76678 17.292 8.11655 17.292 10C17.292 11.8834 17.2903 13.2332 17.1523 14.2598C17.0167 15.2684 16.7596 15.8712 16.3154 16.3154C15.8712 16.7596 15.2684 17.0167 14.2598 17.1523C13.2332 17.2903 11.8834 17.292 10 17.292ZM14.5898 6.25C15.05 6.25 15.4227 5.87708 15.4229 5.41699C15.4229 4.95675 15.0501 4.58301 14.5898 4.58301H14.582C14.1219 4.58319 13.749 4.95686 13.749 5.41699C13.7492 5.87697 14.1221 6.24982 14.582 6.25H14.5898ZM10 14.375C12.4162 14.375 14.375 12.4162 14.375 10C14.375 7.58375 12.4162 5.625 10 5.625C7.58375 5.625 5.625 7.58375 5.625 10C5.625 12.4162 7.58375 14.375 10 14.375ZM10 13.125C8.27411 13.125 6.875 11.7259 6.875 10C6.875 8.27411 8.27411 6.875 10 6.875C11.7259 6.875 13.125 8.27411 13.125 10C13.125 11.7259 11.7259 13.125 10 13.125Z" fill="#2C2C2C"/>
</svg>
