<svg width="20" height="20" viewBox="0 0 20 20" fill="none" xmlns="http://www.w3.org/2000/svg">
<path d="M5.41699 7.29199C5.76202 7.29217 6.04199 7.57192 6.04199 7.91699L6.04199 18.333C6.04199 18.6781 5.76202 18.9578 5.41699 18.958H1.66699C1.32181 18.958 1.04199 18.6782 1.04199 18.333L1.04199 7.91699C1.04199 7.57181 1.32181 7.29199 1.66699 7.29199L5.41699 7.29199ZM11.667 7.29199C12.0079 7.29214 12.2854 7.56492 12.292 7.9043C12.9107 7.51671 13.6358 7.29199 14.4141 7.29199C16.66 7.29205 18.958 9.20387 18.958 11.667L18.957 18.333C18.957 18.6781 18.6772 18.958 18.332 18.958H14.583C14.238 18.9578 13.958 18.6781 13.958 18.333V13.125C13.9579 12.6649 13.5852 12.292 13.125 12.292C12.6648 12.292 12.2921 12.6649 12.292 13.125V18.333C12.292 18.6781 12.012 18.9579 11.667 18.958L7.91699 18.958C7.57181 18.958 7.29199 18.6782 7.29199 18.333L7.29199 7.91699C7.29199 7.57181 7.57181 7.29199 7.91699 7.29199L11.667 7.29199ZM2.29199 17.708H4.79199L4.79199 8.54199H2.29199L2.29199 17.708ZM8.54199 17.708H11.042V13.125C11.0421 11.9745 11.9745 11.042 13.125 11.042C14.2755 11.042 15.2079 11.9745 15.208 13.125V17.708H17.707L17.708 11.667C17.7079 9.98809 16.0674 8.54205 14.4141 8.54199C13.5161 8.54199 12.7035 8.98129 12.1641 9.69043C12.0016 9.9037 11.7209 9.98995 11.4668 9.9043C11.2127 9.81858 11.042 9.57972 11.042 9.31152V8.54199L8.54199 8.54199L8.54199 17.708ZM3.54199 1.04199C4.92255 1.04217 6.04199 2.16139 6.04199 3.54199C6.04182 4.92245 4.92245 6.04182 3.54199 6.04199C2.16139 6.04199 1.04217 4.92255 1.04199 3.54199C1.04199 2.16128 2.16128 1.04199 3.54199 1.04199ZM3.54199 2.29199C2.85164 2.29199 2.29199 2.85164 2.29199 3.54199C2.29217 4.2322 2.85174 4.79199 3.54199 4.79199C4.23209 4.79182 4.79182 4.23209 4.79199 3.54199C4.79199 2.85174 4.2322 2.29217 3.54199 2.29199Z" fill="#2C2C2C"/>
</svg>
