<svg width="14" height="16" viewBox="0 0 14 16" fill="none" xmlns="http://www.w3.org/2000/svg">
<path d="M6.9375 0C10.7418 0 13.875 2.93877 13.875 6.62305C13.875 8.6152 12.8989 10.1304 11.7139 11.4268C11.1595 12.0332 10.5435 12.608 9.94824 13.1641C9.90944 13.2003 9.87064 13.2364 9.83203 13.2725C9.19374 13.8691 8.58233 14.4476 8.05176 15.0547C7.47048 15.7196 6.40085 15.6974 5.83887 15.0293C5.32172 14.4143 4.71725 13.8378 4.08105 13.248C3.99512 13.1684 3.90833 13.0882 3.82129 13.0078C3.27221 12.5007 2.70595 11.9776 2.19238 11.4297C0.995211 10.1523 4.82999e-06 8.6535 0 6.62305C0 2.93877 3.13318 0 6.9375 0ZM6.9375 1.125C3.70019 1.125 1.125 3.61304 1.125 6.62305C1.125 8.23774 1.89944 9.47235 3.01367 10.6611C3.4971 11.1769 4.02913 11.6688 4.58008 12.1777C4.66802 12.259 4.75693 12.3406 4.8457 12.4229C5.48268 13.0133 6.13363 13.631 6.7002 14.3047C6.82475 14.4528 7.08439 14.4525 7.20508 14.3145C7.77821 13.6587 8.42909 13.0442 9.06348 12.4512C9.09966 12.4174 9.13582 12.3833 9.17188 12.3496C9.77509 11.7861 10.3597 11.2402 10.8828 10.668C11.9879 9.45897 12.75 8.20588 12.75 6.62305C12.75 3.61304 10.1748 1.125 6.9375 1.125ZM6.9375 3.75C8.69791 3.75 10.125 5.17709 10.125 6.9375C10.125 8.69791 8.69791 10.125 6.9375 10.125C5.17709 10.125 3.75 8.69791 3.75 6.9375C3.75 5.17709 5.17709 3.75 6.9375 3.75ZM6.9375 4.875C5.79841 4.875 4.875 5.79841 4.875 6.9375C4.875 8.07659 5.79841 9 6.9375 9C8.07659 9 9 8.07659 9 6.9375C9 5.79841 8.07659 4.875 6.9375 4.875Z" fill="#6C6C6C"/>
</svg>
