<svg width="171" height="47" viewBox="0 0 171 47" fill="none" xmlns="http://www.w3.org/2000/svg">
<g clip-path="url(#clip0_4001_335)">
<path d="M47.8768 22.2899C47.4801 22.2899 47.1697 22.4106 46.911 22.6693C46.6523 22.928 46.5143 23.2212 46.5143 23.6007C46.5143 23.9801 46.6523 24.2905 46.911 24.5492C47.1697 24.7907 47.4973 24.9286 47.8768 24.9286C48.2734 24.9286 48.6011 24.8079 48.8598 24.5492C49.1185 24.3078 49.2393 23.9801 49.2393 23.6007C49.2393 23.2385 49.1185 22.928 48.8598 22.6693C48.6011 22.4106 48.2907 22.2899 47.8768 22.2899Z" fill="white"/>
<path d="M45.3588 24.532C45.6175 24.2905 45.7555 23.9628 45.7555 23.5834C45.7555 23.2212 45.6175 22.9108 45.3588 22.6521C45.1001 22.3934 44.7724 22.2727 44.393 22.2727C43.9791 22.2727 43.6514 22.3934 43.4099 22.6521C43.1512 22.9108 43.0305 23.204 43.0305 23.5834C43.0305 23.9628 43.1512 24.2733 43.4099 24.532C43.6686 24.7734 43.9963 24.9114 44.393 24.9114C44.7724 24.9114 45.1001 24.7907 45.3588 24.532Z" fill="white"/>
<path d="M50.4811 20.7377H60.1737V18.099H58.1731C57.7074 18.099 57.2418 18.0472 56.8106 17.9265C56.3794 17.8058 55.9827 17.6333 55.6551 17.4091C55.3274 17.1849 55.0514 16.8917 54.8445 16.564C54.6375 16.2191 54.534 15.8396 54.534 15.3912C54.534 14.7531 54.7582 14.2529 55.1894 13.8735C55.6378 13.4941 56.2587 13.3044 57.0865 13.3044C57.3797 13.3044 57.6902 13.3216 57.9834 13.3389C58.2766 13.3734 58.6215 13.4079 59.0009 13.4768L59.3114 10.8898C58.794 10.8209 58.3455 10.7691 57.9316 10.7174C57.5177 10.6829 57.1383 10.6656 56.7933 10.6656C55.931 10.6656 55.1722 10.7864 54.5685 11.0278C53.9476 11.2693 53.4302 11.597 53.0336 11.9936C52.6369 12.4075 52.3437 12.8732 52.1712 13.3734C51.9815 13.8908 51.8953 14.4254 51.8953 14.9601C51.8953 15.6499 52.0333 16.2536 52.3092 16.771C52.5851 17.3056 52.9128 17.7368 53.3095 18.0817H50.4638H50.3258H49.6877C48.9288 18.0817 48.4115 17.892 48.1183 17.4953C47.8251 17.0986 47.6871 16.5985 47.6871 15.9949V11.6832H45.1001V16.9089C45.1001 17.2711 45.0483 17.5471 44.9276 17.754C44.8069 17.961 44.5827 18.0645 44.255 18.0645H42.2199H42.0647H41.2886C40.5297 18.0645 40.0123 17.8747 39.7364 17.4781C39.4604 17.0814 39.3224 16.5812 39.3224 15.9776V11.6659H36.7699V16.8917C36.7699 17.2539 36.7182 17.5298 36.5975 17.7368C36.4767 17.9437 36.2525 18.0472 35.8731 18.0472H35.3212C34.5624 18.0472 34.0277 17.8575 33.7518 17.4608C33.4586 17.0642 33.3206 16.564 33.3206 15.9604V12.8732H30.7164V16.8744C30.7164 17.2366 30.6646 17.5126 30.5611 17.7195C30.4576 17.9265 30.2334 18.03 29.8713 18.03H29.4573C28.6985 18.03 28.1638 17.823 27.8879 17.4263C27.5947 17.0124 27.4567 16.5295 27.4567 15.9604V13.8045H24.9042V16.9779C24.9042 17.3573 24.8352 17.6333 24.7145 17.823C24.5938 17.9955 24.3523 18.099 24.0074 18.099H19.9372V16.357C19.9372 14.8048 19.5577 13.6321 18.7989 12.856C18.04 12.0799 16.8673 11.7004 15.2461 11.7004H12.1072V19.5477C12.1072 20.0823 11.9864 20.548 11.745 20.9619C11.5035 21.3758 11.1586 21.7208 10.7102 22.014C10.2618 22.2899 9.74438 22.5141 9.14074 22.6521C8.53711 22.7901 7.86449 22.8763 7.14013 22.8763C6.41577 22.8763 5.77764 22.7901 5.2085 22.6003C4.63936 22.4279 4.15645 22.1864 3.77702 21.876C3.3976 21.5655 3.1044 21.2206 2.91469 20.8067C2.72498 20.3928 2.6215 19.9271 2.6215 19.427C2.6215 19.013 2.70773 18.5646 2.86295 18.0817C3.01817 17.5988 3.27687 17.0814 3.6218 16.564L1.48322 15.3222C1.05205 15.9604 0.689867 16.633 0.41392 17.3229C0.137973 18.0127 0 18.7716 0 19.5994C0 20.3065 0.137973 21.0309 0.396674 21.7208C0.672621 22.4279 1.06929 23.066 1.63844 23.6351C2.19033 24.2043 2.91469 24.6699 3.79427 25.0321C4.67385 25.3943 5.7259 25.5668 6.95041 25.5668C8.29566 25.5668 9.46843 25.3943 10.4515 25.0494C11.4346 24.7044 12.2451 24.2388 12.8833 23.6351C13.5214 23.0488 13.9871 22.3589 14.2975 21.5655C14.6079 20.7722 14.7459 19.9099 14.7459 19.013V14.2185H14.9529C15.3668 14.2185 15.7117 14.2529 16.0222 14.3047C16.3326 14.3564 16.5913 14.4772 16.7983 14.6324C17.0052 14.8048 17.1432 15.029 17.2467 15.3395C17.3502 15.6499 17.3847 16.0638 17.3847 16.564V20.7032H24.0246C24.6628 20.7032 25.2492 20.5825 25.7666 20.341C26.284 20.0996 26.6979 19.7201 26.9911 19.2372C27.1808 19.6167 27.4912 19.9444 27.8879 20.2548C28.2846 20.5652 28.8192 20.7032 29.4573 20.7032H30.0437C30.5956 20.7032 31.1303 20.5825 31.6304 20.341C32.1306 20.0996 32.5273 19.7201 32.8204 19.2372C33.0102 19.6167 33.3034 19.9444 33.6828 20.2548C34.0622 20.5652 34.6141 20.7032 35.304 20.7032H35.9076C36.5457 20.7032 37.1149 20.5652 37.6323 20.3065C38.1497 20.0478 38.5291 19.6857 38.7878 19.2027C38.9948 19.5994 39.3052 19.9444 39.7019 20.2375C40.0985 20.548 40.6332 20.686 41.3231 20.686H42.0992H42.2889H44.4102C45.0483 20.686 45.583 20.548 46.0487 20.2548C46.5143 19.9616 46.8765 19.5994 47.1352 19.1683C47.3422 19.5477 47.6526 19.8926 48.0493 20.2203C48.4459 20.5307 48.9806 20.7032 49.6532 20.7032H50.3603H50.4811V20.7377Z" fill="white"/>
<path d="M67.2791 25.1184C67.4688 25.1529 67.6758 25.1873 67.9172 25.2046C68.1587 25.2218 68.4174 25.2391 68.7106 25.2391C69.4004 25.2391 70.0213 25.1184 70.556 24.8597C71.0906 24.601 71.5218 24.256 71.9012 23.8249C72.2634 23.3937 72.5393 22.8763 72.7118 22.2727C72.8843 21.6863 72.9877 21.0481 72.9877 20.3583V11.7004H70.4007V20.1686C70.4007 20.9792 70.28 21.6 70.0558 22.0312C69.8316 22.4624 69.3832 22.6693 68.7106 22.6693C68.5553 22.6693 68.3656 22.6521 68.1759 22.6348C67.9689 22.6176 67.7965 22.5831 67.6068 22.5486L66.9686 22.4106L66.6582 24.9976C66.7617 25.0149 66.8652 25.0494 66.9686 25.0666C67.0721 25.0839 67.1756 25.1011 67.2791 25.1184Z" fill="white"/>
<path d="M87.5786 23.6007C87.5786 23.2385 87.4579 22.928 87.1992 22.6693C86.9405 22.4106 86.6128 22.2899 86.2161 22.2899C85.8195 22.2899 85.509 22.4106 85.2503 22.6693C84.9916 22.928 84.8536 23.2212 84.8536 23.6007C84.8536 23.9801 84.9916 24.2905 85.2503 24.5492C85.509 24.7907 85.8367 24.9286 86.2161 24.9286C86.6128 24.9286 86.9405 24.8079 87.1992 24.5492C87.4406 24.2905 87.5786 23.9801 87.5786 23.6007Z" fill="white"/>
<path d="M82.7149 24.9114C83.1116 24.9114 83.422 24.7907 83.6807 24.532C83.9394 24.2905 84.0774 23.9628 84.0774 23.5834C84.0774 23.2212 83.9394 22.9108 83.6807 22.6521C83.422 22.3934 83.0943 22.2727 82.7149 22.2727C82.301 22.2727 81.9733 22.3934 81.7318 22.6521C81.4731 22.9108 81.3524 23.204 81.3524 23.5834C81.3524 23.9628 81.4731 24.2733 81.7318 24.532C81.9733 24.7907 82.301 24.9114 82.7149 24.9114Z" fill="white"/>
<path d="M112 14.0115C111.81 13.3734 111.534 12.8387 111.172 12.3731C110.81 11.9246 110.327 11.5625 109.758 11.3038C109.189 11.0451 108.533 10.9071 107.774 10.9071C107.085 10.9071 106.464 11.0278 105.894 11.2865C105.325 11.5452 104.825 11.8902 104.411 12.3386C103.997 12.787 103.652 13.3216 103.428 13.9425C103.187 14.5634 103.083 15.236 103.083 15.9604C103.083 17.3746 102.618 18.0817 101.669 18.0817H100.91H100.772H98.9786C98.237 18.0817 97.7196 18.0645 97.3919 18.0127C98.3577 17.0987 99.0131 16.2536 99.3408 15.4602C99.6684 14.6669 99.8409 13.9598 99.8409 13.3216C99.8409 13.0457 99.7547 12.7352 99.565 12.4248C99.3925 12.1144 99.1165 11.8384 98.7544 11.5797C98.3922 11.321 97.9265 11.1141 97.3746 10.9588C96.8227 10.8036 96.1501 10.7174 95.374 10.7174C94.8739 10.7174 94.3737 10.7691 93.8736 10.8898C93.3734 10.9933 92.8905 11.1485 92.4076 11.321C91.9247 11.4935 91.4763 11.7004 91.0623 11.9419C90.6312 12.1833 90.2517 12.442 89.9241 12.718L90.0103 14.5461C90.062 14.7186 90.1828 14.9601 90.338 15.236C90.5104 15.512 90.7002 15.8051 90.9416 16.1156C91.1658 16.426 91.4245 16.7365 91.7005 17.0642C91.9764 17.3918 92.2351 17.6678 92.5111 17.9265C92.3386 17.9782 92.1144 18.0127 91.8557 18.0472C91.597 18.0817 91.3038 18.0817 90.9761 18.0817H88.803H88.6478H88.0097C87.2508 18.0817 86.7334 17.892 86.4402 17.4953C86.147 17.0987 86.0091 16.5985 86.0091 15.9949V11.6832H83.4221V16.9089C83.4221 17.2711 83.3703 17.5471 83.2496 17.754C83.1289 17.961 82.9047 18.0645 82.577 18.0645H80.5074H80.4039H78.9552V4.43958H76.3682V20.7032H80.4039H80.5074H82.6977C83.3358 20.7032 83.8705 20.5652 84.3361 20.272C84.8018 19.9788 85.164 19.6167 85.4227 19.1855C85.6296 19.5649 85.9401 19.9099 86.3367 20.2375C86.7334 20.548 87.2681 20.7205 87.9407 20.7205H88.6478H88.803H90.9761C91.6315 20.7205 92.2869 20.6515 92.9595 20.4963C93.6321 20.341 94.253 20.0996 94.8394 19.7719C95.2015 19.9788 95.7362 20.1858 96.4088 20.41C97.0987 20.617 97.9438 20.7205 98.9613 20.7205H100.807H100.945H101.876C102.324 20.7205 102.738 20.5997 103.152 20.341C103.549 20.0823 103.877 19.7029 104.101 19.1683C104.342 19.4959 104.618 19.7546 104.911 19.9616C105.205 20.1686 105.515 20.3238 105.843 20.4445C106.17 20.5652 106.498 20.6342 106.826 20.6687C107.153 20.7032 107.498 20.7205 107.826 20.7205C108.654 20.7205 109.344 20.5825 109.896 20.3238C110.465 20.0651 110.931 19.7201 111.293 19.289C111.655 18.8578 111.931 18.3749 112.086 17.8058C112.241 17.2366 112.328 16.6675 112.328 16.0638C112.293 15.3395 112.19 14.6496 112 14.0115ZM97.1849 14.5979C97.0642 14.8738 96.8917 15.1498 96.6848 15.443C96.4778 15.7362 96.2191 16.0121 95.9259 16.2708C95.6327 16.5468 95.3223 16.771 94.9773 16.9779C94.7014 16.771 94.4082 16.5295 94.1323 16.2536C93.8563 15.9776 93.5804 15.6844 93.3389 15.374C93.0975 15.0808 92.8905 14.7876 92.718 14.5289C92.5456 14.2702 92.4421 14.0632 92.3903 13.9253C92.7353 13.7183 93.2009 13.5458 93.7528 13.4079C94.3047 13.2699 94.8394 13.2181 95.3395 13.2181C95.581 13.2181 95.8224 13.2354 96.0639 13.2526C96.3053 13.2699 96.5123 13.3044 96.7193 13.3561C96.909 13.4079 97.0642 13.4596 97.2022 13.5458C97.3229 13.6321 97.3919 13.7355 97.3919 13.8563C97.3746 14.0805 97.3056 14.3219 97.1849 14.5979ZM109.309 17.5816C108.964 18.0127 108.447 18.2369 107.723 18.2369C106.964 18.2369 106.429 18.0127 106.101 17.5643C105.774 17.1159 105.619 16.5985 105.619 15.9776C105.619 15.5809 105.67 15.236 105.791 14.9083C105.912 14.5806 106.05 14.3219 106.239 14.0805C106.429 13.8563 106.653 13.6838 106.912 13.5631C107.171 13.4424 107.447 13.3734 107.723 13.3734C107.999 13.3734 108.257 13.4424 108.516 13.5631C108.757 13.6838 108.982 13.8563 109.171 14.0805C109.361 14.3047 109.516 14.5806 109.637 14.9083C109.758 15.236 109.827 15.5809 109.827 15.9776C109.827 16.6157 109.654 17.1331 109.309 17.5816Z" fill="white"/>
<path d="M24.4729 36.4149H24.4556L20.8856 28.2055H19.0402V38.6743H20.2819V29.8784H20.3164L24.0762 38.6743H24.835L28.5948 29.8784H28.6293V38.6743H29.8711V28.2055H28.0602L24.4729 36.4149Z" fill="white"/>
<path d="M32.8719 28.2055C32.6305 28.2055 32.4408 28.2918 32.2683 28.4642C32.0958 28.6367 32.0269 28.8264 32.0269 29.0679C32.0269 29.3093 32.1131 29.5163 32.2683 29.6715C32.4235 29.8267 32.6305 29.9129 32.8719 29.9129C33.1134 29.9129 33.3204 29.8267 33.4756 29.6715C33.6308 29.5163 33.717 29.3093 33.717 29.0679C33.717 28.8436 33.6308 28.6367 33.4756 28.4642C33.3031 28.2745 33.1134 28.2055 32.8719 28.2055Z" fill="white"/>
<path d="M33.4584 31.7583H32.3029V38.6915H33.4584V31.7583Z" fill="white"/>
<path d="M41.3401 37.4843V34.5006C41.3401 33.5175 41.1159 32.7932 40.6675 32.3102C40.2191 31.8273 39.4775 31.5859 38.4427 31.5859C37.9425 31.5859 37.4424 31.6721 36.9595 31.8446C36.4766 32.0171 36.0454 32.293 35.6832 32.6379L36.4076 33.3968C36.6835 33.1381 37.0112 32.9484 37.3734 32.8276C37.7356 32.7069 38.0977 32.6379 38.4772 32.6379C39.0291 32.6379 39.443 32.7759 39.7534 33.0346C40.0466 33.2933 40.2018 33.6727 40.2018 34.1729V34.3798H39.7534C39.3223 34.3798 38.8566 34.3971 38.3564 34.4316C37.8563 34.4661 37.3734 34.5696 36.9422 34.7248C36.511 34.88 36.1316 35.1215 35.8384 35.4491C35.5452 35.7768 35.39 36.2252 35.39 36.7944C35.39 37.1393 35.459 37.4325 35.597 37.6912C35.735 37.9499 35.9247 38.1569 36.1489 38.3293C36.3731 38.5018 36.649 38.6398 36.9595 38.726C37.2699 38.8122 37.5976 38.864 37.9598 38.864C38.4944 38.864 38.9601 38.7433 39.3395 38.5191C39.7189 38.2948 40.0294 38.0017 40.2536 37.6567H40.2881C40.2881 37.7947 40.2881 37.9672 40.2881 38.1569C40.2881 38.3466 40.3226 38.5191 40.3571 38.6915H41.4609C41.4264 38.5191 41.4091 38.3121 41.3919 38.1051C41.3574 37.8809 41.3401 37.674 41.3401 37.4843ZM40.1846 35.7941C40.1673 36.0873 40.1156 36.346 40.0294 36.6047C39.9431 36.8634 39.8052 37.0703 39.6327 37.26C39.4602 37.4498 39.2533 37.605 39.0118 37.7085C38.7704 37.8292 38.4772 37.8809 38.1322 37.8809C37.7011 37.8809 37.3389 37.7947 37.0457 37.605C36.7525 37.4325 36.6145 37.1221 36.6145 36.6909C36.6145 36.208 36.8387 35.8631 37.2699 35.6561C37.7011 35.4491 38.2875 35.3457 39.0291 35.3457H40.1846V35.7941Z" fill="white"/>
<path d="M45.8069 37.1738H45.7724L43.6166 31.7411H42.2714L45.1516 38.7087L44.6687 40.0023C44.5479 40.3472 44.3927 40.6231 44.203 40.8301C44.0305 41.0371 43.7546 41.1405 43.3751 41.1405C43.2027 41.1405 43.0647 41.1405 42.9267 41.1233C42.806 41.106 42.668 41.0715 42.5473 41.0371L42.3921 42.0374C42.5473 42.1236 42.7198 42.1753 42.9095 42.1926C43.0992 42.2098 43.2717 42.2271 43.4269 42.2271C43.7718 42.2271 44.065 42.1753 44.3065 42.0891C44.5479 42.0029 44.7549 41.8649 44.9274 41.6924C45.0998 41.52 45.255 41.313 45.3758 41.0715C45.4965 40.8301 45.6172 40.5541 45.7379 40.261L49.0838 31.7411H47.8248L45.8069 37.1738Z" fill="white"/>
<path d="M55.9827 37.4843V34.5006C55.9827 33.5175 55.7585 32.7932 55.3101 32.3102C54.8617 31.8273 54.1201 31.5859 53.0853 31.5859C52.5851 31.5859 52.0849 31.6721 51.602 31.8446C51.1191 32.0171 50.688 32.293 50.3258 32.6379L51.0502 33.3968C51.3261 33.1381 51.6538 32.9484 52.016 32.8276C52.3781 32.7069 52.7403 32.6379 53.1198 32.6379C53.6716 32.6379 54.0856 32.7759 54.396 33.0346C54.6892 33.2933 54.8444 33.6727 54.8444 34.1729V34.3798H54.396C53.9648 34.3798 53.4992 34.3971 52.999 34.4316C52.4989 34.4661 52.016 34.5696 51.5848 34.7248C51.1536 34.88 50.7742 35.1215 50.481 35.4491C50.1878 35.7768 50.0326 36.2252 50.0326 36.7944C50.0326 37.1393 50.1016 37.4325 50.2396 37.6912C50.3775 37.9499 50.5672 38.1569 50.7915 38.3293C51.0157 38.5018 51.2916 38.6398 51.602 38.726C51.9125 38.8122 52.2402 38.864 52.6024 38.864C53.137 38.864 53.6027 38.7433 53.9821 38.5191C54.3615 38.2948 54.672 38.0017 54.8962 37.6567H54.9307C54.9307 37.7947 54.9307 37.9672 54.9307 38.1569C54.9307 38.3466 54.9651 38.5191 54.9996 38.6915H56.1034C56.0689 38.5191 56.0517 38.3121 56.0344 38.1051C56 37.8809 55.9827 37.674 55.9827 37.4843ZM54.8272 35.7941C54.8099 36.0873 54.7582 36.346 54.672 36.6047C54.5857 36.8634 54.4477 37.0703 54.2753 37.26C54.1028 37.4498 53.8959 37.605 53.6544 37.7085C53.4129 37.8292 53.1198 37.8809 52.7748 37.8809C52.3437 37.8809 51.9815 37.7947 51.6883 37.605C51.3951 37.4325 51.2571 37.1221 51.2571 36.6909C51.2571 36.208 51.4813 35.8631 51.9125 35.6561C52.3437 35.4491 52.93 35.3457 53.6716 35.3457H54.8272V35.7941Z" fill="white"/>
<path d="M60.6048 31.6894C60.3633 31.7583 60.1391 31.8618 59.9321 31.9826C59.7424 32.1033 59.57 32.2413 59.4147 32.3965C59.2768 32.5517 59.156 32.7069 59.087 32.8794H59.0526C59.0526 32.6897 59.0526 32.5 59.0353 32.3102C59.0181 32.1205 59.0181 31.9308 59.0181 31.7583H57.9315C57.9315 31.9826 57.9488 32.2413 57.966 32.5172C57.9833 32.7931 58.0005 33.0863 58.0005 33.414V38.6915H59.156V35.3112C59.156 34.5006 59.3113 33.8797 59.6389 33.414C59.9666 32.9484 60.484 32.7242 61.1911 32.7242C61.4153 32.7242 61.6223 32.7587 61.812 32.8104L61.8983 31.6376C61.7603 31.5859 61.5878 31.5514 61.4153 31.5514C61.1222 31.5686 60.8462 31.6031 60.6048 31.6894Z" fill="white"/>
<path d="M67.5378 33.7934H72.5049V32.6379H67.5378V29.361H72.867V28.2055H66.2788V38.6743H73.143V37.5187H67.5378V33.7934Z" fill="white"/>
<path d="M78.9207 35.2249C78.7138 35.0697 78.4723 34.9317 78.1964 34.8455C77.9204 34.742 77.6272 34.673 77.3168 34.6213C77.0926 34.5868 76.8684 34.5351 76.6614 34.4661C76.4544 34.3971 76.2647 34.3281 76.1095 34.2591C75.9543 34.1729 75.8163 34.0867 75.7301 33.9832C75.6266 33.8797 75.5921 33.759 75.5921 33.621C75.5921 33.4658 75.6266 33.3278 75.7128 33.2071C75.7991 33.0863 75.9025 32.9829 76.0233 32.9139C76.144 32.8276 76.2992 32.7759 76.4544 32.7242C76.6097 32.6897 76.7821 32.6552 76.9373 32.6552C77.2823 32.6552 77.5755 32.7414 77.8169 32.8966C78.0584 33.0518 78.2481 33.2588 78.4033 33.5003L79.3691 32.8621C79.1449 32.4137 78.8172 32.1033 78.4033 31.8963C77.9894 31.6894 77.5237 31.6031 77.0236 31.6031C76.6959 31.6031 76.3854 31.6549 76.075 31.7411C75.7646 31.8273 75.4886 31.9653 75.2472 32.1205C75.0057 32.293 74.7988 32.5 74.6435 32.7587C74.4883 33.0174 74.4193 33.3106 74.4193 33.6555C74.4193 34.0177 74.4883 34.2936 74.6263 34.5351C74.7643 34.7593 74.9367 34.949 75.1609 35.087C75.3851 35.2249 75.6438 35.3457 75.937 35.4319C76.2302 35.5181 76.5407 35.6044 76.8684 35.6733C77.0581 35.7078 77.2478 35.7596 77.4203 35.8113C77.5927 35.8631 77.7479 35.932 77.8859 36.0183C78.0239 36.1045 78.1274 36.208 78.2136 36.3115C78.2998 36.4322 78.3343 36.5874 78.3343 36.7771C78.3343 36.9668 78.2826 37.1221 78.1964 37.26C78.1101 37.398 77.9894 37.5015 77.8342 37.5877C77.679 37.674 77.5237 37.7429 77.334 37.7774C77.1616 37.8119 76.9718 37.8292 76.7994 37.8292C76.3855 37.8292 76.0405 37.7429 75.7646 37.5705C75.4886 37.398 75.2472 37.1738 75.023 36.8806L74.1089 37.5877C74.4538 38.0879 74.8505 38.4328 75.2817 38.6053C75.7128 38.795 76.213 38.8812 76.8166 38.8812C77.1616 38.8812 77.4892 38.8467 77.8169 38.7605C78.1446 38.6743 78.4551 38.5535 78.7138 38.3811C78.9725 38.2086 79.1794 37.9844 79.3519 37.7085C79.5071 37.4325 79.5933 37.1048 79.5933 36.7081C79.5933 36.3632 79.5416 36.07 79.4209 35.8286C79.3001 35.5699 79.1277 35.3802 78.9207 35.2249Z" fill="white"/>
<path d="M85.1812 35.2249C84.9742 35.0697 84.7328 34.9317 84.4568 34.8455C84.1809 34.742 83.8877 34.673 83.5773 34.6213C83.3531 34.5868 83.1289 34.5351 82.9219 34.4661C82.7149 34.3971 82.5252 34.3281 82.37 34.2591C82.2148 34.1729 82.0768 34.0867 81.9906 33.9832C81.8871 33.8797 81.8526 33.759 81.8526 33.621C81.8526 33.4658 81.8871 33.3278 81.9733 33.2071C82.0596 33.0863 82.163 32.9829 82.2838 32.9139C82.4045 32.8276 82.5597 32.7759 82.7149 32.7242C82.8702 32.6897 83.0426 32.6552 83.1978 32.6552C83.5428 32.6552 83.836 32.7414 84.0774 32.8966C84.3189 33.0518 84.5086 33.2588 84.6638 33.5003L85.6296 32.8621C85.4054 32.4137 85.0777 32.1033 84.6638 31.8963C84.2499 31.6894 83.7842 31.6031 83.2841 31.6031C82.9564 31.6031 82.6459 31.6549 82.3355 31.7411C82.0251 31.8273 81.7491 31.9653 81.5077 32.1205C81.2662 32.293 81.0592 32.5 80.904 32.7587C80.7488 33.0174 80.6798 33.3106 80.6798 33.6555C80.6798 34.0177 80.7488 34.2936 80.8868 34.5351C81.0248 34.7593 81.1972 34.949 81.4214 35.087C81.6456 35.2249 81.9043 35.3457 82.1975 35.4319C82.4907 35.5181 82.8012 35.6044 83.1289 35.6733C83.3186 35.7078 83.5083 35.7596 83.6807 35.8113C83.8532 35.8631 84.0084 35.932 84.1464 36.0183C84.2844 36.1045 84.3879 36.208 84.4741 36.3115C84.5603 36.4322 84.5948 36.5874 84.5948 36.7771C84.5948 36.9668 84.5431 37.1221 84.4568 37.26C84.3706 37.398 84.2499 37.5015 84.0947 37.5877C83.9394 37.674 83.7842 37.7429 83.5945 37.7774C83.422 37.8119 83.2323 37.8292 83.0599 37.8292C82.6459 37.8292 82.301 37.7429 82.0251 37.5705C81.7491 37.398 81.5077 37.1738 81.2835 36.8806L80.3694 37.5877C80.7143 38.0879 81.111 38.4328 81.5422 38.6053C81.9733 38.795 82.4735 38.8812 83.0771 38.8812C83.422 38.8812 83.7497 38.8467 84.0774 38.7605C84.4051 38.6743 84.7155 38.5535 84.9742 38.3811C85.2329 38.2086 85.4399 37.9844 85.6124 37.7085C85.7676 37.4325 85.8538 37.1048 85.8538 36.7081C85.8538 36.3632 85.8021 36.07 85.6814 35.8286C85.5606 35.5699 85.3882 35.3802 85.1812 35.2249Z" fill="white"/>
<path d="M93.0976 37.4843V34.5006C93.0976 33.5175 92.8734 32.7932 92.4249 32.3102C91.9765 31.8273 91.2349 31.5859 90.2001 31.5859C89.7 31.5859 89.1998 31.6721 88.7169 31.8446C88.234 32.0171 87.8028 32.293 87.4407 32.6379L88.165 33.3968C88.441 33.1381 88.7686 32.9484 89.1308 32.8276C89.493 32.7069 89.8552 32.6379 90.2346 32.6379C90.7865 32.6379 91.2004 32.7759 91.5109 33.0346C91.8041 33.2933 91.9593 33.6727 91.9593 34.1729V34.3798H91.5109C91.0797 34.3798 90.614 34.3971 90.1139 34.4316C89.6137 34.4661 89.1308 34.5696 88.6997 34.7248C88.2685 34.88 87.8891 35.1215 87.5959 35.4491C87.3027 35.7768 87.1475 36.2252 87.1475 36.7944C87.1475 37.1393 87.2164 37.4325 87.3544 37.6912C87.4924 37.9499 87.6821 38.1569 87.9063 38.3293C88.1305 38.5018 88.4065 38.6398 88.7169 38.726C89.0273 38.8122 89.355 38.864 89.7172 38.864C90.2519 38.864 90.7175 38.7433 91.097 38.5191C91.4764 38.2948 91.7868 38.0017 92.011 37.6567H92.0455C92.0455 37.7947 92.0455 37.9672 92.0455 38.1569C92.0455 38.3466 92.08 38.5191 92.1145 38.6915H93.2183C93.1838 38.5191 93.1666 38.3121 93.1493 38.1051C93.1148 37.8809 93.0976 37.674 93.0976 37.4843ZM91.9593 35.7941C91.942 36.0873 91.8903 36.346 91.8041 36.6047C91.7178 36.8634 91.5799 37.0703 91.4074 37.26C91.2349 37.4498 91.028 37.605 90.7865 37.7085C90.5451 37.8292 90.2519 37.8809 89.9069 37.8809C89.4758 37.8809 89.1136 37.7947 88.8204 37.605C88.5272 37.4325 88.3892 37.1221 88.3892 36.6909C88.3892 36.208 88.6134 35.8631 89.0446 35.6561C89.4758 35.4491 90.0622 35.3457 90.8038 35.3457H91.9593V35.7941Z" fill="white"/>
<path d="M138.649 30.1817V34.091L146.18 38.5895L160.409 30.0955V38.1009L146.065 46.6667L131.779 38.144V14.0417L131.966 14.1567L138.649 18.1522V22.0327L146.381 26.6462L160.409 18.2815V26.2869L146.267 34.7234L138.649 30.1817Z" fill="white"/>
<path d="M170.713 0V31.9495L163.844 36.06V12.1158L146.18 22.6507L128.531 12.1158V36.06L121.661 31.9495V0L146.18 14.6453L170.713 0Z" fill="#CEF380"/>
</g>
<defs>
<clipPath id="clip0_4001_335">
<rect width="170.713" height="46.6667" fill="white"/>
</clipPath>
</defs>
</svg>
