<svg width="24" height="24" viewBox="0 0 24 24" fill="none" xmlns="http://www.w3.org/2000/svg">
<path d="M9.07874 2.78809C11.0437 2.73809 12.9536 2.73809 14.9186 2.78809C18.1566 2.87009 19.9408 2.91584 21.2838 4.25684C22.6287 5.61181 22.666 7.34907 22.733 10.502C22.754 11.5087 22.754 12.4864 22.733 13.4932C22.666 16.6461 22.6286 18.3824 21.2867 19.7354C19.9417 21.0794 18.1576 21.125 14.9196 21.207C13.9376 21.232 12.9686 21.2451 11.9996 21.2451C11.0307 21.2451 10.0617 21.232 9.07971 21.207C5.84171 21.125 4.05748 21.0783 2.71448 19.7373C1.36981 18.3824 1.33323 16.6449 1.26624 13.4922C1.24525 12.4854 1.24524 11.5077 1.26624 10.501C1.33323 7.3481 1.3697 5.61177 2.71155 4.25879C4.05655 2.91479 5.84074 2.87009 9.07874 2.78809ZM14.8805 4.28516C12.9416 4.23517 11.0567 4.23516 9.11682 4.28516C6.07914 4.36215 4.69305 4.39769 3.77405 5.31641C2.85609 6.24237 2.82725 7.58652 2.76526 10.5312C2.74426 11.5162 2.74426 12.4749 2.76526 13.4609C2.82725 16.4057 2.85601 17.7508 3.77698 18.6777C4.69398 19.5936 6.07996 19.63 9.1178 19.707C11.0567 19.757 12.9416 19.757 14.8815 19.707C17.9195 19.63 19.3062 19.5948 20.2252 18.6758C21.143 17.7498 21.172 16.4055 21.234 13.4609C21.255 12.4759 21.255 11.5173 21.234 10.5312C21.172 7.58667 21.1431 6.24141 20.2223 5.31445C19.3053 4.39845 17.9185 4.36216 14.8805 4.28516ZM16.6188 7.84766C16.9757 7.63688 17.4352 7.7554 17.6451 8.1123C17.856 8.46926 17.7384 8.92869 17.3815 9.13867L14.4391 10.8789C13.4583 11.4567 12.7295 11.7451 11.9996 11.7451C11.2706 11.7451 10.5412 11.4559 9.56116 10.8789L6.61877 9.1377C6.26277 8.9267 6.14313 8.46635 6.35413 8.11035C6.56516 7.75453 7.02554 7.63578 7.38147 7.84668L10.3239 9.58691C11.7956 10.4537 12.2036 10.4538 13.6774 9.58691L16.6188 7.84766Z" fill="#010101"/>
</svg>
