<svg width="16" height="22" viewBox="0 0 16 22" fill="none" xmlns="http://www.w3.org/2000/svg">
<path d="M7.80566 0C9.40826 -1.80602e-05 10.6873 -9.57996e-05 11.6904 0.134766C12.7267 0.27409 13.5798 0.569985 14.2549 1.24512C14.93 1.92025 15.2259 2.77332 15.3652 3.80957C15.5001 4.81266 15.5 6.09174 15.5 7.69434V13.8057C15.5 15.4083 15.5001 16.6873 15.3652 17.6904C15.2259 18.7267 14.93 19.5798 14.2549 20.2549C13.5798 20.93 12.7267 21.2259 11.6904 21.3652C10.6873 21.5001 9.40826 21.5 7.80566 21.5H7.69434C6.09174 21.5 4.81266 21.5001 3.80957 21.3652C2.77332 21.2259 1.92025 20.93 1.24512 20.2549C0.569985 19.5798 0.274089 18.7267 0.134766 17.6904C-9.57847e-05 16.6873 -1.80602e-05 15.4083 0 13.8057V7.69434C-1.80602e-05 6.09174 -9.57847e-05 4.81266 0.134766 3.80957C0.27409 2.77332 0.569985 1.92025 1.24512 1.24512C1.92025 0.569985 2.77332 0.27409 3.80957 0.134766C4.81266 -9.57996e-05 6.09174 -1.80602e-05 7.69434 0H7.80566ZM11.3672 1.60645C11.2874 2.08254 11.215 2.5 11.1152 2.83984C10.9961 3.24551 10.8173 3.62674 10.4736 3.93164C10.1182 4.24683 9.70897 4.37981 9.27051 4.44043C8.85702 4.49758 8.34657 4.49805 7.75195 4.49805C7.15715 4.49805 6.64601 4.49759 6.23242 4.44043C5.79398 4.3798 5.38473 4.24685 5.0293 3.93164C4.68564 3.62674 4.5068 3.24552 4.3877 2.83984C4.28794 2.49996 4.21452 2.08261 4.13477 1.60645C4.09253 1.61147 4.05077 1.61558 4.00977 1.62109C3.13983 1.73805 2.65565 1.95568 2.30566 2.30566C1.95568 2.65565 1.73805 3.13983 1.62109 4.00977C1.50128 4.90123 1.5 6.07908 1.5 7.75V13.75C1.5 15.4209 1.50128 16.5988 1.62109 17.4902C1.73805 18.3602 1.95568 18.8444 2.30566 19.1943C2.65565 19.5443 3.13983 19.7619 4.00977 19.8789C4.90123 19.9987 6.07908 20 7.75 20C9.42092 20 10.5988 19.9987 11.4902 19.8789C12.3602 19.7619 12.8443 19.5443 13.1943 19.1943C13.5443 18.8444 13.7619 18.3602 13.8789 17.4902C13.9987 16.5988 14 15.4209 14 13.75V7.75C14 6.07908 13.9987 4.90123 13.8789 4.00977C13.7619 3.13983 13.5443 2.65565 13.1943 2.30566C12.8443 1.95568 12.3602 1.73805 11.4902 1.62109C11.4499 1.61567 11.4088 1.6114 11.3672 1.60645ZM8.75 17C9.16421 17 9.5 17.3358 9.5 17.75C9.5 18.1642 9.16421 18.5 8.75 18.5H6.75C6.33579 18.5 6 18.1642 6 17.75C6 17.3358 6.33579 17 6.75 17H8.75ZM7.75 1.5C6.93889 1.5 6.24397 1.50056 5.6416 1.51465C5.70992 1.91482 5.76267 2.1973 5.82715 2.41699C5.9037 2.6778 5.97132 2.76247 6.02441 2.80957C6.08283 2.86137 6.17436 2.9176 6.43848 2.9541C6.7278 2.99405 7.12317 2.99805 7.75195 2.99805C8.38041 2.99804 8.77521 2.99402 9.06445 2.9541C9.32849 2.91761 9.4201 2.86136 9.47852 2.80957C9.5316 2.76247 9.59924 2.67778 9.67578 2.41699C9.74025 2.19733 9.79204 1.91472 9.86035 1.51465C9.25753 1.50051 8.56199 1.5 7.75 1.5Z" fill="#010101"/>
</svg>
