<svg width="18" height="19" viewBox="0 0 18 19" fill="none" xmlns="http://www.w3.org/2000/svg">
<path d="M17.3849 14.2599C17.7062 13.552 17.9185 12.7835 17.9998 11.9777L12.7049 13.0972V10.945L17.3848 9.9563C17.706 9.2484 17.9183 8.47985 17.9997 7.67405L12.7047 8.79265V1.0527C11.8934 1.50558 11.1728 2.10842 10.5871 2.81951V9.24028L8.46949 9.68776V0C7.65815 0.452726 6.9376 1.05572 6.35187 1.76681V10.1351L1.61369 11.136C1.29249 11.8439 1.08 12.6125 0.9985 13.4183L6.35187 12.2873V14.9976L0.614687 16.2096C0.293481 16.9175 0.0811591 17.6861 -0.000183105 18.4919L6.00505 17.2232C6.4939 17.1221 6.91406 16.8347 7.18723 16.4393L8.28855 14.8161V14.8158C8.40288 14.6478 8.46949 14.4454 8.46949 14.2273V11.8398L10.5871 11.3923V15.6967L17.3848 14.2596L17.3849 14.2599Z" fill="#010101"/>
</svg>
