<svg width="20" height="20" viewBox="0 0 20 20" fill="none" xmlns="http://www.w3.org/2000/svg">
<path d="M9.16626 1.04199C4.67908 1.04215 1.04126 4.67978 1.04126 9.16699C1.04144 13.6541 4.67919 17.2918 9.16626 17.292C11.185 17.292 13.0304 16.5536 14.4514 15.335L17.8909 18.7754C18.1349 19.0195 18.5316 19.0195 18.7756 18.7754C19.0194 18.5314 19.0193 18.1356 18.7756 17.8916L15.3362 14.4512C16.5543 13.0304 17.2912 11.1852 17.2913 9.16699C17.2913 4.67968 13.6536 1.04199 9.16626 1.04199ZM9.16626 2.29199C12.9632 2.29199 16.0413 5.37003 16.0413 9.16699C16.0411 12.9638 12.9631 16.042 9.16626 16.042C5.36954 16.0418 2.29144 12.9637 2.29126 9.16699C2.29126 5.37013 5.36944 2.29215 9.16626 2.29199Z" fill="#6C6C6C"/>
</svg>
