<svg width="20" height="20" viewBox="0 0 20 20" fill="none" xmlns="http://www.w3.org/2000/svg">
<path d="M7.91669 18.3334C10.6781 18.3334 12.9167 16.0948 12.9167 13.3334V6.87122C13.7505 7.53966 14.7485 8.01185 15.8405 8.21776C16.1324 8.27282 16.2784 8.30035 16.4585 8.25379C16.6725 8.19849 16.9102 8.00142 17.0042 7.80139C17.0834 7.63301 17.0834 7.44981 17.0834 7.08341C17.0834 6.70122 17.0834 6.51012 17.0416 6.38328C16.9726 6.17333 16.9127 6.09216 16.7325 5.9642C16.6236 5.88689 16.3663 5.80738 15.8517 5.64838C14.541 5.24341 13.5067 4.20907 13.1017 2.8984C12.9427 2.38379 12.8632 2.12649 12.7859 2.01761C12.6579 1.83741 12.5768 1.77753 12.3668 1.70847C12.24 1.66675 12.0489 1.66675 11.6667 1.66675C11.2784 1.66675 11.0843 1.66675 10.9311 1.73018C10.7269 1.81476 10.5647 1.97699 10.4801 2.18118C10.4167 2.33432 10.4167 2.52846 10.4167 2.91675V13.3334C10.4167 14.7141 9.2974 15.8334 7.91669 15.8334C6.53598 15.8334 5.41669 14.7141 5.41669 13.3334C5.41669 12.387 5.94253 11.5635 6.71797 11.139C7.29389 10.8237 7.58185 10.6661 7.66247 10.5882C7.8214 10.4346 7.82864 10.4224 7.88705 10.2092C7.91669 10.1011 7.91669 9.92853 7.91669 9.58342C7.91669 9.22902 7.91669 9.05183 7.8319 8.87852C7.73477 8.68 7.46995 8.47415 7.25359 8.429C7.06473 8.38959 6.93627 8.42229 6.67934 8.4877C4.51639 9.03834 2.91669 10.9991 2.91669 13.3334C2.91669 16.0948 5.15526 18.3334 7.91669 18.3334Z" stroke="#2C2C2C" stroke-width="1.5" stroke-linecap="round" stroke-linejoin="round"/>
</svg>
