<svg width="21" height="21" viewBox="0 0 21 21" fill="none" xmlns="http://www.w3.org/2000/svg">
<path d="M10.3076 0C12.4979 -1.35863e-05 14.2183 0.0001171 15.5615 0.180664C16.9382 0.365751 18.0305 0.75313 18.8887 1.61133C19.7469 2.46953 20.1342 3.56182 20.3193 4.93848C20.4999 6.28174 20.5 8.00212 20.5 10.1924V10.3076C20.5 12.4979 20.4999 14.2183 20.3193 15.5615C20.1342 16.9382 19.7469 18.0305 18.8887 18.8887C18.0305 19.7469 16.9382 20.1342 15.5615 20.3193C14.2183 20.4999 12.4979 20.5 10.3076 20.5H10.1924C8.00212 20.5 6.28174 20.4999 4.93848 20.3193C3.56182 20.1342 2.46953 19.7469 1.61133 18.8887C0.75313 18.0305 0.365751 16.9382 0.180664 15.5615C0.000117099 14.2183 -1.35863e-05 12.4979 0 10.3076V10.1924C-1.35863e-05 8.00212 0.0001171 6.28174 0.180664 4.93848C0.365751 3.56182 0.75313 2.46953 1.61133 1.61133C2.46953 0.75313 3.56182 0.365751 4.93848 0.180664C6.28174 0.000117099 8.00213 -1.35863e-05 10.1924 0H10.3076ZM10.25 1.5C7.98963 1.5 6.3696 1.50137 5.1377 1.66699C3.92747 1.82972 3.2049 2.13885 2.67188 2.67188C2.13885 3.2049 1.82972 3.92747 1.66699 5.1377C1.50137 6.3696 1.5 7.98963 1.5 10.25C1.5 12.5104 1.50137 14.1304 1.66699 15.3623C1.82972 16.5725 2.13885 17.2951 2.67188 17.8281C3.2049 18.3611 3.92747 18.6703 5.1377 18.833C6.3696 18.9986 7.98963 19 10.25 19C12.5104 19 14.1304 18.9986 15.3623 18.833C16.5725 18.6703 17.2951 18.3611 17.8281 17.8281C18.3611 17.2951 18.6703 16.5725 18.833 15.3623C18.9986 14.1304 19 12.5104 19 10.25C19 7.98963 18.9986 6.3696 18.833 5.1377C18.6703 3.92747 18.3611 3.2049 17.8281 2.67188C17.2951 2.13885 16.5725 1.82972 15.3623 1.66699C14.1304 1.50137 12.5104 1.5 10.25 1.5ZM9.75 4.5C10.1642 4.5 10.5 4.83579 10.5 5.25V5.87891H15.25C15.6641 5.87891 15.9998 6.21488 16 6.62891C16 7.04312 15.6642 7.37891 15.25 7.37891H13.3037C12.7645 8.97966 11.8625 10.4786 10.8486 11.8145L12.3262 13.3506C12.6133 13.6491 12.6041 14.124 12.3057 14.4111C12.0071 14.6983 11.5323 14.6891 11.2451 14.3906L9.89746 12.9893C8.97762 14.0579 8.01355 15.008 7.15039 15.8018C6.84552 16.0821 6.3712 16.0626 6.09082 15.7578C5.81057 15.453 5.83024 14.9787 6.13477 14.6982C7.01141 13.8921 7.97982 12.9332 8.88574 11.8643C8.65725 11.5773 8.42072 11.2662 8.2041 10.9658C7.86732 10.4988 7.53875 10.0053 7.37695 9.6582C7.20198 9.28279 7.36484 8.83614 7.74023 8.66113C8.11567 8.48615 8.56232 8.64898 8.7373 9.02441C8.8328 9.2291 9.08307 9.62037 9.4209 10.0889C9.55642 10.2768 9.69942 10.4693 9.84277 10.6553C10.605 9.61802 11.2608 8.51506 11.707 7.37891H5.25C4.83579 7.37891 4.5 7.04312 4.5 6.62891C4.50022 6.21488 4.83592 5.87891 5.25 5.87891H9V5.25C9 4.83579 9.33579 4.5 9.75 4.5Z" fill="white"/>
</svg>
