<svg width="40" height="40" viewBox="0 0 40 40" fill="none" xmlns="http://www.w3.org/2000/svg">
<rect width="40" height="40" rx="4" fill="black" fill-opacity="0.3"/>
<path fill-rule="evenodd" clip-rule="evenodd" d="M22.8495 16.2499C19.2047 16.2502 16.2501 19.2048 16.2499 22.8495C16.2499 26.4945 19.2046 29.4499 22.8495 29.4501C24.4016 29.4501 25.829 28.9142 26.9559 28.0175L29.4696 30.5302C29.7625 30.8231 30.2373 30.8231 30.5302 30.5302C30.6399 30.4205 30.7087 30.2852 30.7362 30.1435C30.7546 30.0488 30.7546 29.9511 30.7362 29.8564C30.7087 29.7147 30.6399 29.5794 30.5302 29.4697L28.0175 26.956C28.9141 25.829 29.4501 24.4016 29.4501 22.8495C29.4499 19.2046 26.4944 16.2499 22.8495 16.2499ZM9.92665 25.2538C9.51453 25.2943 9.21352 25.661 9.25379 26.0732C9.39069 27.4739 9.71322 28.5824 10.5653 29.4345C11.4174 30.2866 12.5259 30.6091 13.9266 30.746C14.3388 30.7863 14.7056 30.4853 14.746 30.0732C14.7863 29.6611 14.4852 29.2943 14.0731 29.2538C12.803 29.1297 12.1148 28.8609 11.6268 28.373C11.1389 27.885 10.8701 27.1969 10.746 25.9267C10.7055 25.5146 10.3388 25.2136 9.92665 25.2538ZM22.8495 17.7499C25.666 17.7499 27.9499 20.0331 27.9501 22.8495C27.9501 25.6662 25.6661 27.9501 22.8495 27.9501C20.033 27.9499 17.7499 25.6661 17.7499 22.8495C17.7501 20.0332 20.0332 17.7501 22.8495 17.7499ZM22.8495 20.1503C22.4355 20.1505 22.0995 20.4862 22.0995 20.9003V22.0995H20.9003C20.4862 22.0995 20.1505 22.4355 20.1503 22.8495C20.1503 23.2638 20.4861 23.5995 20.9003 23.5995H22.0995V24.7997C22.0995 25.2138 22.4355 25.5495 22.8495 25.5497C23.2637 25.5497 23.5995 25.214 23.5995 24.7997V23.5995H24.7997C25.2139 23.5995 25.5497 23.2638 25.5497 22.8495C25.5495 22.4355 25.2138 22.0995 24.7997 22.0995H23.5995V20.9003C23.5995 20.4861 23.2637 20.1503 22.8495 20.1503ZM9.99989 17.2499C9.58569 17.2499 9.24992 17.5858 9.24989 17.9999V21.9999C9.24989 22.4142 9.58567 22.7499 9.99989 22.7499C10.4141 22.7499 10.7499 22.4141 10.7499 21.9999V17.9999C10.7499 17.5858 10.4141 17.25 9.99989 17.2499ZM26.0731 9.25385C25.661 9.21357 25.2943 9.51465 25.2538 9.9267C25.2135 10.3389 25.5145 10.7056 25.9266 10.746C27.1968 10.8701 27.885 11.1389 28.3729 11.6269C28.8609 12.1148 29.1297 12.803 29.2538 14.0732C29.2942 14.4853 29.661 14.7863 30.0731 14.746C30.4852 14.7055 30.7863 14.3388 30.746 13.9267C30.6091 12.526 30.2856 11.4184 29.4335 10.5663C28.5814 9.71427 27.4738 9.39075 26.0731 9.25385ZM13.9266 9.25385C12.5259 9.39074 11.4174 9.71424 10.5653 10.5663C9.71356 11.4184 9.39068 12.5263 9.25379 13.9267C9.21352 14.3389 9.51453 14.7056 9.92665 14.746C10.3388 14.7863 10.7056 14.4853 10.746 14.0732C10.8701 12.803 11.1389 12.1148 11.6268 11.6269C12.1148 11.139 12.803 10.8701 14.0731 10.746C14.4852 10.7055 14.7863 10.3388 14.746 9.9267C14.7055 9.51464 14.3388 9.21357 13.9266 9.25385ZM17.9999 9.24994C17.5857 9.24994 17.2499 9.58575 17.2499 9.99994C17.2499 10.4142 17.5857 10.7499 17.9999 10.7499H21.9999C22.4141 10.7499 22.7499 10.4141 22.7499 9.99994C22.7499 9.58577 22.4141 9.24998 21.9999 9.24994H17.9999Z" fill="#CEF380"/>
</svg>
